<svg width="20" height="20" viewBox="0 0 20 20" fill="none" xmlns="http://www.w3.org/2000/svg">
<g clip-path="url(#clip0_82_1510)">
<path d="M19.0833 7.4625C18.5205 7.17727 17.8444 7.23672 17.34 7.61582L15.8125 8.75C15.5959 6.62219 13.8055 5.0027 11.6667 5H11.5959L8.16086 1.56582C7.6934 1.09508 7.0568 0.831255 6.39336 0.833325H0.83332C0.373086 0.833325 0 1.20645 0 1.66668C0 2.12692 0.373086 2.5 0.83332 2.5H6.39332C6.61422 2.50059 6.82594 2.58832 6.9825 2.74418L9.23832 5H4.16668C1.86664 5.00278 0.00277344 6.86664 0 9.16668V15.8334C0.00277344 18.1334 1.86664 19.9973 4.16668 20H11.6667C13.8055 19.9973 15.5959 18.3778 15.8125 16.25L17.3375 17.3867C18.0739 17.9389 19.1186 17.7897 19.6708 17.0534C19.8872 16.7649 20.0041 16.414 20.0041 16.0534V8.9525C20.0063 8.3209 19.6492 7.74305 19.0833 7.4625ZM14.1667 15.8333C14.1667 17.214 13.0474 18.3333 11.6667 18.3333H4.16668C2.78598 18.3333 1.66668 17.214 1.66668 15.8333V9.16668C1.66668 7.78598 2.78598 6.66668 4.16668 6.66668H11.6667C13.0474 6.66668 14.1667 7.78598 14.1667 9.16668V15.8333ZM18.3333 16.0475L15.8333 14.1842V10.8159L18.3333 8.95254V16.0475Z" fill="#A8A8A8"/>
</g>
<defs>
<clipPath id="clip0_82_1510">
<rect width="20" height="20" fill="white"/>
</clipPath>
</defs>
</svg>
