<?xml version="1.0" standalone="no"?>
<!DOCTYPE svg PUBLIC "-//W3C//DTD SVG 20010904//EN"
 "http://www.w3.org/TR/2001/REC-SVG-20010904/DTD/svg10.dtd">
<svg version="1.0" xmlns="http://www.w3.org/2000/svg"
 width="761.000000pt" height="234.000000pt" viewBox="0 0 761.000000 234.000000"
 preserveAspectRatio="xMidYMid meet">

<g transform="translate(0.000000,234.000000) scale(0.100000,-0.100000)"
fill="#000000" stroke="none">
<path d="M6580 1571 c6 -13 10 -156 10 -395 0 -446 -8 -416 117 -416 60 0 74
3 65 12 -8 8 -12 47 -12 108 0 81 3 100 18 113 10 10 24 17 30 17 14 0 49 -55
82 -130 37 -84 64 -117 104 -124 37 -7 96 12 128 41 17 15 17 17 -11 34 -16 9
-49 46 -74 81 -59 82 -84 105 -141 127 l-47 18 107 94 c59 52 121 106 138 121
l31 27 -100 0 -100 1 -43 -88 c-23 -48 -59 -109 -80 -137 l-37 -50 -5 266 c-4
205 -8 270 -19 282 -10 13 -31 17 -93 17 -75 0 -78 -1 -68 -19z"/>
<path d="M790 1511 c6 -13 10 -143 10 -356 0 -333 3 -367 34 -387 6 -4 46 -8
89 -8 74 0 77 1 67 19 -5 11 -10 76 -10 144 l0 125 118 4 c145 6 215 29 266
90 78 91 70 239 -18 320 -59 54 -133 68 -362 68 -199 0 -204 -1 -194 -19z
m347 -24 c85 -45 120 -229 60 -318 -38 -56 -71 -73 -147 -77 l-70 -4 0 188 c0
104 -3 200 -7 213 -6 24 -6 24 63 19 38 -3 83 -12 101 -21z"/>
<path d="M4548 1159 c2 -281 0 -375 -10 -386 -10 -13 19 -14 238 -10 281 4
305 9 370 72 55 52 71 108 54 184 -15 66 -76 133 -139 152 l-41 12 41 35 c112
96 86 249 -50 297 -34 12 -90 15 -255 15 l-211 0 3 -371z m317 330 c16 -8 40
-30 53 -49 21 -30 23 -44 20 -107 -3 -63 -7 -76 -32 -102 -20 -21 -43 -32 -72
-37 -53 -8 -62 -34 -11 -34 55 0 111 -20 145 -53 81 -77 65 -249 -28 -298 -26
-15 -56 -19 -125 -19 l-90 0 0 361 0 361 55 -4 c30 -2 68 -11 85 -19z"/>
<path d="M2140 1461 c5 -11 10 -51 10 -90 l0 -71 -40 0 c-29 0 -40 -4 -40 -15
0 -11 11 -15 40 -15 l40 0 0 -212 c0 -149 4 -220 13 -237 43 -83 188 -95 252
-20 30 37 33 54 6 39 -32 -17 -69 -12 -85 12 -13 19 -16 57 -16 220 l0 198 50
0 c38 0 50 4 50 15 0 11 -12 15 -49 15 l-49 0 -4 74 c-5 99 -12 106 -110 106
-75 0 -78 -1 -68 -19z"/>
<path d="M1682 1295 c-76 -21 -133 -64 -166 -125 -55 -101 -42 -240 30 -320
104 -115 326 -133 427 -35 20 20 37 39 37 43 0 4 -11 14 -23 23 -22 16 -23 15
-51 -25 -40 -59 -83 -86 -135 -86 -78 0 -124 72 -138 215 l-6 65 188 0 188 0
-6 54 c-9 87 -43 138 -120 178 -52 26 -157 32 -225 13z m131 -23 c23 -25 35
-62 43 -131 l7 -61 -103 0 -103 0 7 43 c12 78 27 119 51 143 29 29 75 32 98 6z"/>
<path d="M2794 1300 c-20 -8 -67 -58 -91 -96 -10 -17 -12 -15 -12 19 -1 60
-26 77 -117 77 -61 0 -74 -3 -66 -13 7 -8 12 -101 14 -251 3 -236 3 -238 27
-257 18 -15 39 -19 92 -19 l69 0 -10 26 c-13 34 -13 239 1 288 15 54 59 96
100 96 24 0 41 -9 70 -40 l38 -40 16 29 c17 35 20 113 4 143 -11 21 -67 48
-96 47 -10 0 -27 -4 -39 -9z"/>
<path d="M3197 1300 c-140 -36 -215 -142 -205 -289 12 -157 126 -261 288 -261
129 0 242 79 275 194 42 145 -20 287 -149 341 -47 20 -158 28 -209 15z m130
-32 c39 -43 56 -114 56 -238 1 -99 -3 -123 -24 -175 -43 -106 -108 -115 -154
-21 -51 104 -45 333 11 419 20 30 30 37 57 37 22 0 41 -8 54 -22z"/>
<path d="M5480 1297 c-139 -39 -212 -151 -196 -299 12 -116 81 -201 189 -233
143 -42 288 10 353 127 26 47 29 62 28 138 0 131 -45 205 -152 252 -55 25
-163 32 -222 15z m138 -30 c49 -52 74 -208 53 -333 -36 -211 -166 -219 -201
-12 -14 81 -9 211 10 276 26 86 92 119 138 69z"/>
<path d="M6120 1297 c-139 -39 -212 -151 -196 -299 12 -116 81 -201 189 -233
191 -57 370 54 384 239 14 171 -90 290 -263 301 -40 3 -88 0 -114 -8z m138
-30 c40 -42 55 -103 56 -227 1 -123 -10 -176 -47 -231 -46 -69 -119 -38 -149
64 -17 58 -16 260 1 319 26 91 91 126 139 75z"/>
<path d="M3613 1280 c8 -11 49 -133 92 -270 l79 -250 96 0 96 0 -3 33 c-2 17
9 84 25 147 l28 115 43 -135 c23 -74 44 -141 46 -147 3 -9 33 -13 102 -13 l99
0 -4 38 c-2 26 19 107 71 270 l74 232 -52 0 -52 0 -32 -157 c-49 -237 -57
-270 -64 -253 -3 8 -31 96 -62 194 -30 99 -62 188 -71 198 -14 15 -32 18 -107
18 -86 0 -89 -1 -74 -18 9 -10 26 -44 36 -75 l20 -58 -33 -142 c-19 -79 -37
-135 -40 -126 -4 8 -33 100 -66 204 -35 114 -66 195 -76 202 -11 8 -50 13
-101 13 -82 0 -84 0 -70 -20z"/>
</g>
</svg>
